<svg width="174" height="174" viewBox="0 0 174 174" fill="none" xmlns="http://www.w3.org/2000/svg">
<g clip-path="url(#clip0_3205_21813)">
<rect width="174" height="174" fill="#FFC530"/>
<path d="M51.5501 149.358C49.5972 148.995 48.3016 147.122 48.6657 145.165C48.6657 145.165 48.6657 145.165 48.6657 145.165L70.3389 27.5358C70.3389 27.5353 70.339 27.5349 70.3391 27.5345C70.6905 25.5785 72.566 24.2841 74.5213 24.6482C76.474 25.0118 77.7695 26.8845 77.4058 28.8407L51.5501 149.358ZM51.5501 149.358C51.7749 149.401 51.993 149.413 52.1988 149.413C53.8954 149.413 55.4206 148.203 55.7322 146.472C55.7323 146.472 55.7324 146.471 55.7325 146.471L77.4056 28.8416L51.5494 149.358C51.5496 149.358 51.5499 149.358 51.5501 149.358Z" fill="#BC7440" stroke="#BC7440"/>
<path d="M101.288 28.8383L101.288 28.8383L101.288 28.8407L122.962 146.471C122.962 146.471 122.962 146.472 122.962 146.472C123.273 148.203 124.799 149.413 126.495 149.413C126.703 149.413 126.919 149.4 127.151 149.359L127.156 149.358C129.098 148.994 130.392 147.121 130.029 145.166C130.029 145.165 130.029 145.165 130.029 145.165L108.367 27.5335L108.366 27.5325C108.003 25.5795 106.129 24.2838 104.173 24.6482C102.217 25.0124 100.938 26.8872 101.288 28.8383Z" fill="#BC7440" stroke="#BC7440"/>
<path d="M85.7471 136.538C85.7471 138.524 87.3664 140.126 89.3466 140.126C91.3268 140.126 92.9462 138.524 92.9462 136.538V114.865C92.9462 112.882 91.3293 111.265 89.3466 111.265C87.364 111.265 85.7471 112.882 85.7471 114.865V136.538Z" fill="#BC7440" stroke="#BC7440"/>
<g filter="url(#filter0_d_3205_21813)">
<path d="M42.0293 49.7134C42.0293 44.1905 46.5064 39.7134 52.0293 39.7134H126.666C132.189 39.7134 136.666 44.1905 136.666 49.7134V106.399H42.0293V49.7134Z" fill="#FF0000" fill-opacity="0.01" shape-rendering="crispEdges"/>
</g>
<path d="M39.6406 46.3106C39.6406 40.7877 44.1178 36.3105 49.6406 36.3105H129.056C134.579 36.3105 139.056 40.7877 139.056 46.3105V107.982H39.6406V46.3106Z" fill="white"/>
<g filter="url(#filter1_d_3205_21813)">
<rect x="50.04" y="49.1382" width="77.5374" height="52.4797" rx="5" fill="#FF0000" fill-opacity="0.01" shape-rendering="crispEdges"/>
</g>
<mask id="mask0_3205_21813" style="mask-type:alpha" maskUnits="userSpaceOnUse" x="48" y="46" width="84" height="58">
<rect x="48.1455" y="46.959" width="83.071" height="56.0926" rx="5" fill="#FFC530"/>
</mask>
<g mask="url(#mask0_3205_21813)">
<rect x="48.1455" y="46.959" width="83.071" height="67.1252" rx="5" fill="#FFF1CC"/>
<path d="M74.4091 87.1672C64.9311 87.1672 49.5888 78.2814 44.502 74.539V124.614H134.794V81.1975C132.421 76.7248 126.686 70.6357 115.967 70.6358C102.413 70.6359 87.2911 87.1672 74.4091 87.1672Z" fill="#FFC530"/>
<g filter="url(#filter2_d_3205_21813)">
<circle cx="65.9293" cy="62.6451" r="7.50352" fill="#FF0000" fill-opacity="0.01" shape-rendering="crispEdges"/>
</g>
<circle cx="65.9297" cy="62.645" r="8.2373" fill="#FFC530"/>
</g>
<g filter="url(#filter3_d_3205_21813)">
<rect x="31.124" y="108.838" width="115.089" height="10.492" rx="3" fill="#F3794D"/>
</g>
<rect x="30.0664" y="107.981" width="118.564" height="12.2057" rx="3" fill="#E47148"/>
</g>
<defs>
<filter id="filter0_d_3205_21813" x="28.0293" y="35.7134" width="122.637" height="94.6855" filterUnits="userSpaceOnUse" color-interpolation-filters="sRGB">
<feFlood flood-opacity="0" result="BackgroundImageFix"/>
<feColorMatrix in="SourceAlpha" type="matrix" values="0 0 0 0 0 0 0 0 0 0 0 0 0 0 0 0 0 0 127 0" result="hardAlpha"/>
<feOffset dy="10"/>
<feGaussianBlur stdDeviation="7"/>
<feComposite in2="hardAlpha" operator="out"/>
<feColorMatrix type="matrix" values="0 0 0 0 0 0 0 0 0 0 0 0 0 0 0 0 0 0 0.13 0"/>
<feBlend mode="normal" in2="BackgroundImageFix" result="effect1_dropShadow_3205_21813"/>
<feBlend mode="normal" in="SourceGraphic" in2="effect1_dropShadow_3205_21813" result="shape"/>
</filter>
<filter id="filter1_d_3205_21813" x="43.04" y="45.1382" width="91.5374" height="66.48" filterUnits="userSpaceOnUse" color-interpolation-filters="sRGB">
<feFlood flood-opacity="0" result="BackgroundImageFix"/>
<feColorMatrix in="SourceAlpha" type="matrix" values="0 0 0 0 0 0 0 0 0 0 0 0 0 0 0 0 0 0 127 0" result="hardAlpha"/>
<feOffset dy="3"/>
<feGaussianBlur stdDeviation="3.5"/>
<feComposite in2="hardAlpha" operator="out"/>
<feColorMatrix type="matrix" values="0 0 0 0 0.952941 0 0 0 0 0.770667 0 0 0 0 0.301961 0 0 0 0.32 0"/>
<feBlend mode="normal" in2="BackgroundImageFix" result="effect1_dropShadow_3205_21813"/>
<feBlend mode="normal" in="SourceGraphic" in2="effect1_dropShadow_3205_21813" result="shape"/>
</filter>
<filter id="filter2_d_3205_21813" x="52.4258" y="50.1416" width="27.007" height="27.0068" filterUnits="userSpaceOnUse" color-interpolation-filters="sRGB">
<feFlood flood-opacity="0" result="BackgroundImageFix"/>
<feColorMatrix in="SourceAlpha" type="matrix" values="0 0 0 0 0 0 0 0 0 0 0 0 0 0 0 0 0 0 127 0" result="hardAlpha"/>
<feOffset dy="1"/>
<feGaussianBlur stdDeviation="3"/>
<feComposite in2="hardAlpha" operator="out"/>
<feColorMatrix type="matrix" values="0 0 0 0 1 0 0 0 0 0.645757 0 0 0 0 0.114394 0 0 0 1 0"/>
<feBlend mode="normal" in2="BackgroundImageFix" result="effect1_dropShadow_3205_21813"/>
<feBlend mode="normal" in="SourceGraphic" in2="effect1_dropShadow_3205_21813" result="shape"/>
</filter>
<filter id="filter3_d_3205_21813" x="25.124" y="104.838" width="127.089" height="22.4922" filterUnits="userSpaceOnUse" color-interpolation-filters="sRGB">
<feFlood flood-opacity="0" result="BackgroundImageFix"/>
<feColorMatrix in="SourceAlpha" type="matrix" values="0 0 0 0 0 0 0 0 0 0 0 0 0 0 0 0 0 0 127 0" result="hardAlpha"/>
<feOffset dy="2"/>
<feGaussianBlur stdDeviation="3"/>
<feComposite in2="hardAlpha" operator="out"/>
<feColorMatrix type="matrix" values="0 0 0 0 0 0 0 0 0 0 0 0 0 0 0 0 0 0 0.15 0"/>
<feBlend mode="normal" in2="BackgroundImageFix" result="effect1_dropShadow_3205_21813"/>
<feBlend mode="normal" in="SourceGraphic" in2="effect1_dropShadow_3205_21813" result="shape"/>
</filter>
<clipPath id="clip0_3205_21813">
<rect width="174" height="174" fill="white"/>
</clipPath>
</defs>
</svg>
