<svg width="180" height="34" viewBox="0 0 180 34" fill="none" xmlns="http://www.w3.org/2000/svg">
<g clip-path="url(#clip0_3196_21958)">
<path d="M29.1451 16.8825L14.8982 8.86249L18.9741 20.0681L15.0532 22.4925L3.78674 15.8059C3.59122 15.6898 3.34806 15.6894 3.15207 15.8046L1.3227 16.8805C1.0484 17.0418 1.04949 17.4388 1.32465 17.5986L16.2473 26.2656C17.8233 27.1809 17.9801 29.397 16.5487 30.5251C15.712 31.1845 14.5562 31.2622 13.6388 30.7207L3.79139 24.9085C3.51504 24.7454 3.1695 24.7558 2.90345 24.9352L1.25904 26.0443C1.0047 26.2158 1.01726 26.5943 1.28242 26.7486L12.4317 33.2362C13.9599 34.1255 15.8446 34.1398 17.3862 33.2738L29.1408 26.6706C32.9586 24.5259 32.9611 19.0306 29.1451 16.8825Z" fill="#77CBFB"/>
<path d="M14.277 0.253067L1.33233 7.70737C1.05511 7.86701 1.05437 8.26678 1.331 8.42745L16.2428 17.0881C17.8208 18.0046 17.9779 20.2236 16.5446 21.3533C15.7097 22.0113 14.557 22.091 13.6395 21.5543L3.89744 15.8552C3.63709 15.7029 3.3147 15.7035 3.05488 15.8567L1.32067 16.8794C1.04689 17.0409 1.04805 17.4373 1.32276 17.5972L12.4579 24.0767C13.9719 24.9577 15.837 24.9805 17.3721 24.1367L28.9385 17.7796C32.78 15.6681 32.8285 10.1655 29.0246 7.9868L15.5198 0.251625C15.1348 0.0310784 14.6616 0.0316274 14.277 0.253067Z" fill="#2277F8"/>
<path d="M48.8688 21.9406C47.0696 21.9406 45.8533 20.6989 45.5238 18.9251H55.3813C55.3813 14.0597 52.8979 11.0948 48.7928 11.0948C44.9663 11.0948 42.0015 13.9583 42.0015 17.9114C42.0015 21.9406 45.093 24.8041 48.9955 24.8041C50.9214 24.8041 53.1767 23.9932 54.3424 22.7768L52.2644 20.6482C51.4282 21.4084 50.0851 21.9406 48.8688 21.9406ZM48.8435 13.9583C50.4906 13.9583 51.5296 15.0986 51.8336 16.7204H45.5492C45.9546 15.048 47.1963 13.9583 48.8435 13.9583ZM62.0655 21.1297V7.09102H58.3151V24.5H70.732V21.1297H62.0655ZM79.3319 21.9406C77.5328 21.9406 76.3164 20.6989 75.987 18.9251H85.8445C85.8445 14.0597 83.3611 11.0948 79.2559 11.0948C75.4295 11.0948 72.4646 13.9583 72.4646 17.9114C72.4646 21.9406 75.5562 24.8041 79.4586 24.8041C81.3845 24.8041 83.6398 23.9932 84.8055 22.7768L82.7276 20.6482C81.8913 21.4084 80.5483 21.9406 79.3319 21.9406ZM79.3066 13.9583C80.9537 13.9583 81.9927 15.0986 82.2968 16.7204H76.0123C76.4178 15.048 77.6595 13.9583 79.3066 13.9583ZM93.8717 11.0948C92.0472 11.0948 90.248 11.6016 88.3981 12.5392L89.6398 14.9973C90.6788 14.4651 91.8191 14.0597 93.0354 14.0597C95.1894 14.0597 96.0763 15.276 96.0763 16.6698V16.9485C94.9613 16.4924 93.7703 16.2643 92.706 16.2643C89.6905 16.2643 87.2831 18.0382 87.2831 20.6229C87.2831 23.1316 89.4117 24.8041 92.1992 24.8041C93.6436 24.8041 95.1387 24.2213 96.0763 23.1823V24.5H99.6493V16.6698C99.6493 13.2488 97.2927 11.0948 93.8717 11.0948ZM93.0354 22.2447C91.7684 22.2447 90.8055 21.5858 90.8055 20.5215C90.8055 19.4572 91.8951 18.6717 93.2382 18.6717C94.2518 18.6717 95.2401 18.8491 96.0763 19.1785V20.3695C95.7976 21.5858 94.4545 22.2447 93.0354 22.2447ZM106.598 13.857V11.3989H102.898V24.5H106.598V18.2409C106.598 15.7828 108.347 14.2117 111.083 14.2117V11.0948C109.082 11.0948 107.46 12.1591 106.598 13.857ZM121.44 11.0948C119.742 11.0948 118.298 11.8297 117.487 12.9954V11.3989H113.787V24.5H117.487V16.7458C117.487 15.3267 118.678 14.2117 120.224 14.2117C121.693 14.2117 122.732 15.3267 122.732 16.9485V24.5H126.28V16.1629C126.28 13.1728 124.278 11.0948 121.44 11.0948ZM135.581 21.9406C133.782 21.9406 132.566 20.6989 132.236 18.9251H142.094C142.094 14.0597 139.61 11.0948 135.505 11.0948C131.679 11.0948 128.714 13.9583 128.714 17.9114C128.714 21.9406 131.805 24.8041 135.708 24.8041C137.634 24.8041 139.889 23.9932 141.055 22.7768L138.977 20.6482C138.14 21.4084 136.797 21.9406 135.581 21.9406ZM135.556 13.9583C137.203 13.9583 138.242 15.0986 138.546 16.7204H132.261C132.667 15.048 133.909 13.9583 135.556 13.9583ZM148.296 13.857V11.3989H144.597V24.5H148.296V18.2409C148.296 15.7828 150.045 14.2117 152.782 14.2117V11.0948C150.78 11.0948 149.158 12.1591 148.296 13.857ZM178.455 7.09102H174.097L169.916 12.7927L165.734 7.09102H161.3L167.686 15.8335L161.3 24.5H165.658L169.84 18.7984L174.021 24.5H178.455L172.07 15.7575L178.455 7.09102Z" fill="#121212"/>
</g>
<defs>
<clipPath id="clip0_3196_21958">
<rect width="180" height="34" fill="white"/>
</clipPath>
</defs>
</svg>
