<svg width="90" height="90" viewBox="0 0 90 90" fill="none" xmlns="http://www.w3.org/2000/svg">
<g clip-path="url(#clip0_3238_32879)">
<rect width="90" height="90" rx="19" fill="#6DCF77"/>
<path fill-rule="evenodd" clip-rule="evenodd" d="M69.8277 44.9993C69.8277 59.5679 58.0176 71.378 43.449 71.378C28.8805 71.378 17.0703 59.5679 17.0703 44.9993C17.0703 30.4308 28.8805 18.6206 43.449 18.6206C51.1263 18.6206 58.0376 21.9003 62.8581 27.1351L40.81 49.1833L34.7613 43.1346C33.7299 42.1032 32.0628 42.1032 31.0314 43.1346C30 44.1661 30 45.8332 31.0314 46.8646L38.945 54.7782C39.4594 55.2926 40.1347 55.5511 40.81 55.5511C41.4853 55.5511 42.1605 55.2926 42.6749 54.7782L66.0553 31.3978C68.45 35.3695 69.8277 40.0235 69.8277 44.9993Z" fill="white"/>
</g>
<defs>
<clipPath id="clip0_3238_32879">
<rect width="90" height="90" fill="white"/>
</clipPath>
</defs>
</svg>
