<svg width="90" height="90" viewBox="0 0 90 90" fill="none" xmlns="http://www.w3.org/2000/svg">
<g clip-path="url(#clip0_3238_32880)">
<rect width="90" height="90" rx="19" fill="#7454F5"/>
<path d="M30.7718 20.3584C17.1847 28.2033 12.5125 45.6403 20.3574 59.2273C28.2023 72.8144 45.6393 77.4866 59.2263 69.6417C72.8134 61.7968 77.4856 44.3598 69.6407 30.7727C61.7958 17.1857 44.3588 12.5134 30.7718 20.3584ZM63.1189 31.2536L55.8402 35.4564C52.0928 29.5947 47.7904 25.0648 43.5962 22.3075C51.0343 21.8579 58.441 25.079 63.1189 31.2536ZM56.3809 64.7134C53.5781 66.3324 45.7645 61.9817 39.0976 51.6925L53.746 43.2358C59.3231 54.1539 59.1837 63.0971 56.3809 64.7134ZM36.2521 46.7642C30.675 35.8462 30.8145 26.9029 33.6172 25.2867C36.42 23.6705 44.2336 28.0183 50.9005 38.3075L36.2521 46.7642ZM26.0483 32.4373C26.3385 37.4482 28.1113 43.4407 31.3124 49.6154L24.0337 53.8181C21.0261 46.6789 21.9423 38.6547 26.0483 32.4373ZM26.8792 58.7464L34.1579 54.5437C37.9053 60.4053 42.2077 64.9353 46.4019 67.6926C38.9638 68.1421 31.5571 64.9211 26.8792 58.7464ZM63.9498 57.5627C63.6596 52.5519 61.8868 46.5593 58.6857 40.3847L65.9644 36.182C68.972 43.3212 68.0558 51.3454 63.9498 57.5627Z" fill="white"/>
</g>
<defs>
<clipPath id="clip0_3238_32880">
<rect width="90" height="90" fill="white"/>
</clipPath>
</defs>
</svg>
