<svg width="90" height="90" viewBox="0 0 90 90" fill="none" xmlns="http://www.w3.org/2000/svg">
<g clip-path="url(#clip0_3238_32881)">
<rect width="90" height="90" rx="19" fill="#F96073"/>
<path d="M59.6138 59.7011C60.6188 58.703 62.2298 58.703 63.2347 59.7011L69.8768 65.0627H69.9922C71.3359 66.4209 71.3359 68.6231 69.9922 69.9813C68.6484 71.3396 66.4697 71.3396 65.1259 69.9813L59.6138 63.664L59.4047 63.428C59.015 62.9348 58.7998 62.3199 58.7998 61.6826C58.7998 60.939 59.0927 60.226 59.6138 59.7011ZM41.3019 19C47.2167 19 52.8892 21.3749 57.0717 25.6023C61.2541 29.8298 63.6037 35.5633 63.6037 41.5418C63.6037 53.9913 53.6188 64.0836 41.3019 64.0836C28.9849 64.0836 19 53.9913 19 41.5418C19 29.0923 28.9849 19 41.3019 19Z" fill="white"/>
</g>
<defs>
<clipPath id="clip0_3238_32881">
<rect width="90" height="90" fill="white"/>
</clipPath>
</defs>
</svg>
