<svg width="90" height="90" viewBox="0 0 90 90" fill="none" xmlns="http://www.w3.org/2000/svg">
<g clip-path="url(#clip0_3238_32884)">
<rect width="90" height="90" rx="19" fill="#FFC530"/>
<path d="M34.8758 58.6541H56.0232C56.5664 57.9961 57.2282 57.3023 57.9393 56.5615C61.0048 53.3701 65.2024 48.9984 65.2024 41.3698C65.2024 30.4782 56.3405 21.6162 45.4489 21.6162C34.5573 21.6162 25.6953 30.4782 25.6953 41.3698C25.6953 48.9984 29.8929 53.3701 32.9585 56.5615C33.6708 57.3023 34.3326 57.9961 34.8758 58.6541ZM36.4771 62.3579C36.9869 64.6963 37.44 66.6494 37.44 66.6494C38.0092 69.2112 40.2401 71.0001 42.8636 71.0001H48.0341C50.6576 71.0001 52.8873 69.2112 53.4528 66.6679C53.4528 66.6679 53.9096 64.7061 54.4207 62.3579H36.4771Z" fill="white"/>
<path d="M68.8633 26.2706C70.3002 26.2706 71.465 25.1058 71.465 23.669C71.465 22.2322 70.3002 21.0674 68.8633 21.0674C67.4265 21.0674 66.2617 22.2322 66.2617 23.669C66.2617 25.1058 67.4265 26.2706 68.8633 26.2706Z" fill="white"/>
<path d="M22.0352 26.2706C23.472 26.2706 24.6368 25.1058 24.6368 23.669C24.6368 22.2322 23.472 21.0674 22.0352 21.0674C20.5984 21.0674 19.4336 22.2322 19.4336 23.669C19.4336 25.1058 20.5984 26.2706 22.0352 26.2706Z" fill="white"/>
<path d="M74.0665 44.4823C75.5033 44.4823 76.6681 43.3175 76.6681 41.8807C76.6681 40.4438 75.5033 39.2791 74.0665 39.2791C72.6296 39.2791 71.4648 40.4438 71.4648 41.8807C71.4648 43.3175 72.6296 44.4823 74.0665 44.4823Z" fill="white"/>
<path d="M16.8321 44.4823C18.2689 44.4823 19.4337 43.3175 19.4337 41.8807C19.4337 40.4438 18.2689 39.2791 16.8321 39.2791C15.3953 39.2791 14.2305 40.4438 14.2305 41.8807C14.2305 43.3175 15.3953 44.4823 16.8321 44.4823Z" fill="white"/>
</g>
<defs>
<clipPath id="clip0_3238_32884">
<rect width="90" height="90" fill="white"/>
</clipPath>
</defs>
</svg>
