<svg width="90" height="90" viewBox="0 0 90 90" fill="none" xmlns="http://www.w3.org/2000/svg">
<g clip-path="url(#clip0_3238_32883)">
<rect width="90" height="90" rx="19" fill="#77CBFB"/>
<path d="M71.6281 29.3959C70.1852 27.3244 67.8235 26.0901 65.3092 26.0901H62.8075C62.8075 27.8664 62.7388 29.5512 62.6345 31.1799H65.3117C66.1617 31.1799 66.9633 31.5998 67.4571 32.3047C67.7217 32.6865 68.1162 33.4728 67.7574 34.4475C66.5867 37.6261 64.4973 39.802 62.6548 41.7183C61.9066 42.4971 61.1788 43.2605 60.5426 44.0545C59.9776 46.121 59.349 47.9915 58.6797 49.6686C58.98 50.74 59.9216 51.5391 61.0872 51.5391C62.4919 51.5391 63.6321 50.4015 63.6321 48.9942C63.6321 48.0475 64.8791 46.7496 66.322 45.2456C68.4038 43.0799 70.9919 40.3848 72.5316 36.2061C73.3765 33.9106 73.0482 31.4293 71.6281 29.3959Z" fill="white"/>
<path d="M18.3613 29.3959C19.8042 27.3244 22.1684 26.0901 24.6802 26.0901H27.1819C27.1819 27.8664 27.2506 29.5512 27.3549 31.1799H24.6802C23.8302 31.1799 23.0286 31.5998 22.5374 32.3047C22.2728 32.6865 21.8783 33.4728 22.2371 34.4475C23.4078 37.6261 25.4972 39.802 27.3397 41.7183C28.0879 42.4971 28.8157 43.2605 29.4519 44.0545C30.0169 46.121 30.6455 47.9915 31.3148 49.6686C31.012 50.74 30.0703 51.5391 28.9048 51.5391C27.5 51.5391 26.3599 50.4015 26.3599 48.9942C26.3599 48.0475 25.1129 46.7496 23.6699 45.2456C21.5882 43.0799 19 40.3848 17.4604 36.2061C16.6155 33.9106 16.9437 31.4293 18.3613 29.3959Z" fill="white"/>
<path d="M57.7185 21.0005H32.2695C29.4574 21.0005 27.1797 23.2782 27.1797 26.0903C27.1797 45.4392 33.8957 55.9598 37.115 59.8942C38.0719 61.0649 39.5097 61.7189 41.024 61.7189H48.9666C50.4783 61.7189 51.9161 61.0649 52.8756 59.8942C56.0923 55.9598 62.8083 45.4392 62.8083 26.0903C62.8083 23.2782 60.5306 21.0005 57.7185 21.0005Z" fill="white"/>
<path d="M55.0397 66.0044L54.1923 63.4595C53.8436 62.4186 52.8715 61.7188 51.7772 61.7188H38.2078C37.1135 61.7188 36.1388 62.4186 35.7927 63.4595L34.9452 66.0044C34.3955 67.6509 35.6221 69.3535 37.3603 69.3535H52.6246C54.3628 69.3535 55.5894 67.6509 55.0397 66.0044Z" fill="white"/>
</g>
<defs>
<clipPath id="clip0_3238_32883">
<rect width="90" height="90" fill="white"/>
</clipPath>
</defs>
</svg>
