<svg width="90" height="90" viewBox="0 0 90 90" fill="none" xmlns="http://www.w3.org/2000/svg">
<g clip-path="url(#clip0_3238_32882)">
<path d="M0 19C0 8.50659 8.50659 0 19 0H71C81.4934 0 90 8.50659 90 19V71C90 81.4934 81.4934 90 71 90H19C8.50659 90 0 81.4934 0 71V19Z" fill="#F3794D"/>
<path d="M33.2487 24.803C30.9281 24.803 28.7025 25.7249 27.0615 27.3658C25.4206 29.0067 24.4987 31.2323 24.4987 33.553C24.4987 35.8736 25.4206 38.0992 27.0615 39.7402C28.7025 41.3811 30.9281 42.303 33.2487 42.303C35.5694 42.303 37.795 41.3811 39.4359 39.7402C41.0769 38.0992 41.9987 35.8736 41.9987 33.553C41.9987 31.2323 41.0769 29.0067 39.4359 27.3658C37.795 25.7249 35.5694 24.803 33.2487 24.803ZM56.5821 24.803C54.2614 24.803 52.0358 25.7249 50.3949 27.3658C48.754 29.0067 47.8321 31.2323 47.8321 33.553C47.8321 35.8736 48.754 38.0992 50.3949 39.7402C52.0358 41.3811 54.2614 42.303 56.5821 42.303C58.9027 42.303 61.1283 41.3811 62.7693 39.7402C64.4102 38.0992 65.3321 35.8736 65.3321 33.553C65.3321 31.2323 64.4102 29.0067 62.7693 27.3658C61.1283 25.7249 58.9027 24.803 56.5821 24.803ZM33.2487 48.1363C24.4987 48.1363 12.832 52.4064 12.832 58.3447V62.7197C12.832 64.3297 14.1387 65.6364 15.7487 65.6364H50.7487C52.3587 65.6364 53.6654 64.3297 53.6654 62.7197V58.3447C53.6654 52.4064 41.9987 48.1363 33.2487 48.1363ZM56.5821 48.1363C55.6575 48.1363 54.6964 48.194 53.7281 48.2845C57.1756 50.8074 59.4988 54.1418 59.4988 58.3447V62.7197C59.4988 64.3297 60.8054 65.6364 62.4154 65.6364H74.0821C75.6921 65.6364 76.9988 64.3297 76.9988 62.7197V58.3447C76.9988 52.4064 65.3321 48.1363 56.5821 48.1363Z" fill="white"/>
</g>
<defs>
<clipPath id="clip0_3238_32882">
<rect width="90" height="90" fill="white"/>
</clipPath>
</defs>
</svg>
